<?xml version="1.0" encoding="UTF-8" standalone="no"?>
<svg
 id="Ebene_1"
 data-name="Ebene 1"
 width="961"
 height="585.94"
 viewBox="0 0 961 585.94"
 version="1.1"
 sodipodi:docname="TOTEM_logo_dark.svg"
 inkscape:version="1.3.2 (091e20ef0f, 2023-11-25, custom)"
 xmlns:inkscape="http://www.inkscape.org/namespaces/inkscape"
 xmlns:sodipodi="http://sodipodi.sourceforge.net/DTD/sodipodi-0.dtd"
 xmlns="http://www.w3.org/2000/svg"
 xmlns:svg="http://www.w3.org/2000/svg">
<sodipodi:namedview
 id="namedview11"
 pagecolor="#ffffff"
 bordercolor="#666666"
 borderopacity="1.0"
 inkscape:showpageshadow="2"
 inkscape:pageopacity="0.0"
 inkscape:pagecheckerboard="0"
 inkscape:deskcolor="#d1d1d1"
 inkscape:zoom="1.0317734"
 inkscape:cx="370.23635"
 inkscape:cy="309.66103"
 inkscape:window-width="2560"
 inkscape:window-height="1387"
 inkscape:window-x="0"
 inkscape:window-y="0"
 inkscape:window-maximized="1"
 inkscape:current-layer="Ebene_1" />
<defs
 id="defs1">
<style
 id="style1">
      .cls-1 {
        fill: #c9d1d9;
      }
    </style>
</defs>
<path
 class="cls-1"
 d="M 138.99,125.94 C 138.99,88.13 108.23,57.37 70.43,57.37 C 32.63,57.37 1.86,88.14 1.86,125.94 C 1.86,163.74 32.62,194.51 70.43,194.51 C 108.24,194.51 138.99,163.75 138.99,125.94 Z M 70.43,152.61 C 55.72,152.61 43.74,140.64 43.74,125.94 C 43.74,111.24 55.72,99.27 70.43,99.27 C 85.14,99.27 97.1,111.24 97.1,125.94 C 97.1,140.64 85.13,152.61 70.43,152.61 Z"
 id="path1" />
<path
 class="cls-1"
 d="M 369.33,125.94 C 369.33,88.13 338.57,57.37 300.76,57.37 C 262.95,57.37 232.2,88.13 232.2,125.94 C 232.2,163.75 262.96,194.51 300.76,194.51 C 338.56,194.51 369.33,163.75 369.33,125.94 Z M 300.76,152.61 C 286.05,152.61 274.09,140.64 274.09,125.94 C 274.09,111.24 286.06,99.27 300.76,99.27 C 315.46,99.27 327.45,111.24 327.45,125.94 C 327.45,140.64 315.47,152.61 300.76,152.61 Z"
 id="path2" />
<path
 class="cls-1"
 d="M 185.6,261.33 C 197.18,261.33 206.54,251.95 206.54,240.38 V 120.96 C 206.54,109.39 197.17,100.01 185.6,100.01 C 174.03,100.01 164.66,109.39 164.66,120.96 V 240.38 C 164.66,251.95 174.03,261.33 185.6,261.33 Z"
 id="path3" />
<path
 class="cls-1"
 d="M 235.09,287.77 H 136.11 C 124.53,287.77 115.17,297.15 115.17,308.72 C 115.17,320.29 124.54,329.67 136.11,329.67 H 235.09 C 246.67,329.67 256.03,320.29 256.03,308.72 C 256.03,297.15 246.66,287.77 235.09,287.77 Z"
 id="path4" />
<path
 class="cls-1"
 d="M 20.94,41.9 H 119.93 C 131.51,41.9 140.87,32.52 140.87,20.95 C 140.87,9.38 131.5,0 119.93,0 H 20.94 C 9.37,0 0,9.38 0,20.95 C 0,32.52 9.37,41.9 20.94,41.9 Z"
 id="path5" />
<path
 class="cls-1"
 d="M 251.27,41.9 H 350.27 C 361.85,41.9 371.21,32.52 371.21,20.95 C 371.21,9.38 361.84,0 350.27,0 H 251.27 C 239.69,0 230.33,9.38 230.33,20.95 C 230.33,32.52 239.7,41.9 251.27,41.9 Z"
 id="path6" />
<path
 class="cls-1"
 d="M 599.66,125.94 C 599.66,88.13 568.9,57.37 531.1,57.37 C 493.3,57.37 462.53,88.13 462.53,125.94 C 462.53,163.75 493.29,194.51 531.1,194.51 C 568.91,194.51 599.66,163.75 599.66,125.94 Z M 531.1,152.61 C 516.39,152.61 504.41,140.64 504.41,125.94 C 504.41,111.24 516.39,99.27 531.1,99.27 C 545.81,99.27 557.77,111.24 557.77,125.94 C 557.77,140.64 545.8,152.61 531.1,152.61 Z"
 id="path7" />
<path
 class="cls-1"
 d="M 486.63,213.71 C 486.09,213.71 485.58,213.83 485.05,213.87 C 484.52,213.83 484.01,213.71 483.47,213.71 H 436.86 V 93.75 C 436.86,82.18 427.49,72.8 415.92,72.8 C 404.35,72.8 394.98,82.18 394.98,93.75 V 213.7 H 348.39 C 347.85,213.7 347.34,213.82 346.81,213.86 C 346.28,213.82 345.77,213.7 345.23,213.7 C 333.65,213.7 324.29,223.08 324.29,234.65 V 359.99 C 324.29,371.56 333.66,380.94 345.23,380.94 C 356.8,380.94 366.17,371.56 366.17,359.99 V 255.6 H 394.98 V 359.99 C 394.98,371.56 404.35,380.94 415.92,380.94 C 427.49,380.94 436.86,371.56 436.86,359.99 V 255.6 H 465.68 V 359.99 C 465.68,371.56 475.05,380.94 486.62,380.94 C 498.19,380.94 507.56,371.56 507.56,359.99 V 234.65 C 507.56,223.08 498.19,213.7 486.62,213.7 Z"
 id="path8" />
<path
 class="cls-1"
 d="M 761.43,57.37 C 723.63,57.37 692.87,88.13 692.87,125.94 C 692.87,163.75 723.63,194.51 761.43,194.51 C 799.23,194.51 830,163.75 830,125.94 C 830,88.13 799.24,57.37 761.43,57.37 Z M 761.43,152.62 C 746.72,152.62 734.76,140.65 734.76,125.95 C 734.76,111.25 746.73,99.28 761.43,99.28 C 776.13,99.28 788.12,111.25 788.12,125.95 C 788.12,140.65 776.14,152.62 761.43,152.62 Z"
 id="path9" />
<path
 class="cls-1"
 d="M 714.87,203.4 C 704.97,197.48 692.11,200.59 686.1,210.52 L 646.26,276.57 L 606.41,210.52 C 600.41,200.58 587.53,197.44 577.64,203.4 C 567.74,209.38 564.55,222.25 570.52,232.15 L 628.31,327.94 C 632.11,334.23 638.92,338.07 646.25,338.07 C 653.58,338.07 660.39,334.22 664.19,327.94 L 721.97,232.15 C 727.95,222.24 724.76,209.37 714.85,203.39 Z"
 id="path10" />
<path
 class="cls-1"
 d="M 596.77,45.32 H 625.32 V 132.27 C 625.32,143.84 634.69,153.22 646.26,153.22 C 657.83,153.22 667.2,143.84 667.2,132.27 V 45.32 H 695.75 C 707.33,45.32 716.69,35.94 716.69,24.37 C 716.69,12.8 707.32,3.42 695.75,3.42 H 596.77 C 585.19,3.42 575.83,12.8 575.83,24.37 C 575.83,35.94 585.2,45.32 596.77,45.32 Z"
 id="path11" />
<path
 id="path4-6"
 style="fill:#c9d1d9;stroke-width:1.05073;fill-opacity:1"
 class="cls-1"
 d="M 776.79493,273.55078 C 765.22494,273.55078 755.85352,282.93001 755.85352,294.5 V 405.95508 H 726.875 C 726.3522,405.95508 725.84025,405.99451 725.32618,406.02539 C 715.58354,380.00542 690.47083,361.42969 661.09961,361.42969 C 623.29965,361.42969 592.5293,392.19004 592.5293,430 C 592.5293,467.80996 623.28965,498.56836 661.09961,498.56836 C 692.73279,498.56836 719.41049,477.03212 727.28711,447.85547 H 746.37696 C 735.57636,485.98888 716.53069,553.07201 712.73438,564.46094 C 708.22724,577.98235 716.16439,584.46094 727.73438,584.46094 C 739.30437,584.46094 746.13244,575.03042 748.67383,563.51172 L 772.73438,454.46094 H 782.73438 L 801.79493,563.51172 C 803.78695,574.90894 811.16439,584.46094 822.73438,584.46094 C 834.30437,584.46094 839.79438,571.41092 837.73438,564.46094 L 806.63868,447.85547 H 825.24415 C 833.12287,477.03207 859.80492,498.56836 891.42969,498.56836 C 929.22965,498.56836 960,467.80996 960,430 C 960,392.19004 929.23965,361.42969 891.42969,361.42969 C 862.08532,361.42969 836.99423,379.97249 827.23243,405.95508 H 797.73438 V 294.5 C 797.73438,282.93001 788.36492,273.55078 776.79493,273.55078 Z M 661.09961,403.33008 C 675.8096,403.33008 687.76954,415.30002 687.76954,430 C 687.76954,444.69999 675.7996,456.66992 661.09961,456.66992 C 646.38963,456.66992 634.41016,444.69999 634.41016,430 C 634.41016,415.30002 646.38963,403.33008 661.09961,403.33008 Z M 891.42969,403.33985 C 906.12968,403.33985 918.11915,415.30978 918.11915,430.00977 C 918.11915,444.70975 906.13968,456.67969 891.42969,456.67969 C 876.71971,456.67969 864.75977,444.70975 864.75977,430.00977 C 864.75977,415.30978 876.72971,403.33985 891.42969,403.33985 Z"
 inkscape:export-filename="../../PCB/totem_plus_1_0-3/hammerhead.svg"
 inkscape:export-xdpi="96"
 inkscape:export-ydpi="96" />
</svg>
