<?xml version="1.0" encoding="UTF-8" standalone="no"?>
<svg
 id="Ebene_1"
 data-name="Ebene 1"
 width="367.4707"
 height="310.91016"
 viewBox="0 0 367.4707 310.91015"
 version="1.1"
 xmlns="http://www.w3.org/2000/svg"
 xmlns:svg="http://www.w3.org/2000/svg">
<defs
 id="defs1">
<style
 id="style1">
      .cls-1 {
        fill: #24292f;
      }
    </style>
</defs>
<path
 id="path4-6"
 style="fill:#24292f;stroke-width:1.05073"
 class="cls-1"
 d="M 184.26563,2.2350477e-6 C 172.69564,2.2350477e-6 163.32422,9.3792322 163.32422,20.949222 V 132.4043 H 134.3457 C 133.8229,132.4043 133.31095,132.44373 132.79688,132.47461 C 123.05424,106.45464 97.941529,87.878912 68.570309,87.878912 C 30.770349,87.878912 -1.25e-6,118.63926 -1.25e-6,156.44922 C -1.25e-6,194.25918 30.760349,225.01758 68.570309,225.01758 C 100.20349,225.01758 126.88119,203.48134 134.75781,174.30469 H 153.84766 C 143.04706,212.4381 124.00139,279.52123 120.20508,290.91016 C 115.69794,304.43157 123.63509,310.91016 135.20508,310.91016 C 146.77507,310.91016 153.60314,301.47964 156.14453,289.96094 L 180.20508,180.91016 H 190.20508 L 209.26563,289.96094 C 211.25765,301.35816 218.63509,310.91016 230.20508,310.91016 C 241.77507,310.91016 247.26508,297.86014 245.20508,290.91016 L 214.10938,174.30469 H 232.71485 C 240.59357,203.48129 267.27562,225.01758 298.90039,225.01758 C 336.70035,225.01758 367.4707,194.25918 367.4707,156.44922 C 367.4707,118.63926 336.71035,87.878912 298.90039,87.878912 C 269.55602,87.878912 244.46493,106.42171 234.70313,132.4043 H 205.20508 V 20.949222 C 205.20508,9.3792322 195.83562,2.2350477e-6 184.26563,2.2350477e-6 Z M 68.570309,129.7793 C 83.280299,129.7793 95.240239,141.74924 95.240239,156.44922 C 95.240239,171.14921 83.270299,183.11914 68.570309,183.11914 C 53.860329,183.11914 41.880859,171.14921 41.880859,156.44922 C 41.880859,141.74924 53.860329,129.7793 68.570309,129.7793 Z M 298.90039,129.78907 C 313.60038,129.78907 325.58985,141.759 325.58985,156.45899 C 325.58985,171.15897 313.61038,183.12891 298.90039,183.12891 C 284.19041,183.12891 272.23047,171.15897 272.23047,156.45899 C 272.23047,141.759 284.20041,129.78907 298.90039,129.78907 Z" />
</svg>
